<?xml version="1.0" standalone="no"?>
<!DOCTYPE svg PUBLIC "-//W3C//DTD SVG 20010904//EN"
 "http://www.w3.org/TR/2001/REC-SVG-20010904/DTD/svg10.dtd">
<svg version="1.0" xmlns="http://www.w3.org/2000/svg"
 width="300.000000pt" height="300.000000pt" viewBox="0 0 300.000000 300.000000"
 preserveAspectRatio="xMidYMid meet">
<metadata>
Created by potrace 1.10, written by Peter Selinger 2001-2011
</metadata>
<g transform="translate(0.000000,300.000000) scale(0.100000,-0.100000)"
fill="#ffffffff" stroke="white">
<path d="M1320 2990 c-188 -26 -341 -74 -511 -161 -402 -207 -682 -580 -780
-1039 -30 -139 -33 -418 -6 -555 44 -224 146 -460 273 -628 132 -176 312 -331
494 -426 185 -96 271 -120 316 -87 17 13 19 27 19 173 0 124 -3 157 -13 155
-58 -11 -200 -13 -254 -2 -122 24 -182 69 -233 177 -47 99 -110 188 -149 213
-45 27 -79 67 -73 83 3 8 20 17 38 19 82 12 172 -37 241 -130 100 -136 171
-182 280 -182 59 0 168 28 173 44 20 79 40 131 62 156 14 17 24 32 22 34 -2 1
-44 10 -94 20 -306 58 -471 198 -547 461 -19 67 -22 104 -23 235 0 136 3 163
23 220 22 65 64 143 102 191 18 22 19 29 9 55 -20 47 -17 228 5 302 l19 62 47
0 c66 0 175 -39 281 -100 l88 -51 113 22 c159 31 370 31 524 0 l111 -22 89 50
c122 70 186 93 263 95 l65 1 19 -60 c23 -73 28 -220 9 -286 -14 -46 -14 -47
21 -92 86 -113 122 -241 114 -412 -9 -210 -61 -356 -168 -470 -34 -36 -87 -80
-118 -99 -70 -43 -210 -90 -313 -106 l-77 -13 25 -33 c14 -18 35 -57 47 -86
19 -49 21 -76 25 -330 4 -259 5 -278 23 -294 29 -26 74 -21 173 20 460 191
790 594 897 1096 33 152 33 429 0 580 -98 460 -377 830 -781 1039 -215 111
-403 159 -650 166 -85 2 -184 0 -220 -5z"/>
</g>
</svg>
