<?xml version="1.0" standalone="no"?>
<!DOCTYPE svg PUBLIC "-//W3C//DTD SVG 20010904//EN"
 "http://www.w3.org/TR/2001/REC-SVG-20010904/DTD/svg10.dtd">
<svg version="1.0" xmlns="http://www.w3.org/2000/svg"
 width="900.000000pt" height="900.000000pt" viewBox="0 0 900.000000 900.000000"
 preserveAspectRatio="xMidYMid meet">
<metadata>
Created by potrace 1.10, written by Peter Selinger 2001-2011
</metadata>
<g transform="translate(0.000000,900.000000) scale(0.100000,-0.100000)"
fill="#ffffffff" stroke="white">
<path d="M4240 8986 c0 -17 -50 -26 -150 -27 -110 -1 -291 -23 -385 -48 -22
-6 -71 -15 -110 -21 -130 -20 -154 -25 -335 -77 -30 -8 -59 -19 -65 -24 -5 -5
-18 -9 -30 -9 -19 0 -98 -23 -140 -41 -11 -5 -40 -15 -65 -23 -49 -16 -199
-77 -295 -120 -33 -15 -76 -34 -95 -43 -44 -19 -45 -20 -176 -89 -146 -77
-169 -90 -249 -142 -11 -6 -27 -15 -35 -19 -8 -3 -31 -19 -51 -35 -20 -15 -40
-28 -44 -28 -4 0 -17 -8 -30 -17 -12 -10 -33 -25 -45 -33 -24 -16 -233 -173
-300 -225 -169 -132 -515 -478 -630 -630 -26 -34 -204 -272 -218 -290 -27 -36
-142 -215 -142 -220 0 -4 -8 -19 -19 -33 -24 -35 -53 -85 -114 -202 -27 -52
-62 -119 -78 -149 -16 -30 -29 -61 -29 -70 0 -10 -4 -21 -9 -27 -13 -13 -128
-286 -141 -335 -6 -23 -15 -49 -20 -58 -15 -30 -40 -116 -40 -137 0 -11 -4
-24 -10 -30 -13 -13 -59 -178 -80 -284 -5 -25 -13 -65 -19 -90 -6 -25 -10 -61
-11 -81 0 -20 -7 -50 -15 -65 -8 -16 -15 -47 -15 -70 0 -23 -4 -54 -10 -70
-17 -50 -34 -369 -34 -634 0 -235 16 -568 30 -615 3 -11 9 -47 13 -80 5 -33
13 -73 19 -90 6 -16 16 -64 22 -105 15 -108 25 -155 50 -240 12 -41 25 -92 29
-113 5 -21 14 -44 20 -50 6 -6 11 -21 11 -33 0 -11 12 -52 26 -90 14 -38 30
-85 35 -105 10 -43 127 -320 140 -334 5 -5 9 -18 9 -30 0 -12 4 -25 9 -30 4
-6 40 -71 78 -145 39 -74 88 -164 110 -200 21 -36 43 -72 47 -80 12 -25 114
-183 138 -215 7 -9 141 -187 218 -290 102 -136 500 -533 636 -635 18 -14 84
-63 146 -110 114 -87 184 -137 216 -155 10 -5 33 -21 52 -35 37 -27 66 -45 90
-56 8 -4 58 -33 110 -63 148 -87 444 -231 544 -265 26 -9 60 -23 76 -31 40
-21 264 -95 287 -95 10 0 23 -4 28 -9 6 -6 28 -14 50 -20 95 -23 171 -44 190
-52 11 -4 36 -10 55 -13 136 -20 180 -28 215 -37 73 -19 148 -29 290 -40 77
-5 176 -14 220 -20 140 -18 831 5 909 31 16 6 47 10 70 10 23 0 52 6 66 13 15
8 55 16 91 20 59 5 117 16 194 37 17 4 68 17 115 29 47 12 98 29 113 37 16 8
36 14 45 14 18 0 105 27 133 40 9 5 35 14 59 20 49 13 343 137 445 187 116 58
260 136 320 174 22 14 47 29 55 33 24 11 183 114 215 138 6 5 66 50 133 101
185 138 185 137 258 202 83 73 403 393 459 459 51 60 79 96 192 248 51 68 96
128 101 133 24 31 126 189 139 215 4 8 32 58 63 110 81 138 211 404 261 535
11 27 29 69 39 92 11 23 24 59 29 80 5 21 21 69 35 107 14 38 26 79 26 90 0
12 4 26 9 32 5 5 16 34 24 64 53 185 59 213 77 340 6 41 16 89 22 105 20 55
46 277 47 396 1 96 10 139 27 139 12 0 14 45 14 250 0 205 -2 250 -14 250 -17
0 -26 43 -27 139 -1 119 -27 341 -47 396 -6 17 -16 64 -22 105 -18 127 -24
155 -77 340 -8 30 -19 59 -24 64 -5 6 -9 20 -9 32 0 11 -12 52 -26 90 -14 38
-30 86 -35 107 -5 21 -18 57 -29 80 -10 23 -28 65 -39 92 -51 133 -182 401
-261 535 -31 52 -60 102 -64 110 -11 24 -113 182 -138 215 -5 6 -50 65 -101
133 -113 151 -141 187 -192 248 -54 65 -407 418 -474 474 -60 51 -70 58 -243
188 -67 51 -127 96 -133 100 -37 28 -192 127 -215 138 -8 4 -26 15 -40 24
-133 92 -640 332 -780 370 -24 6 -50 15 -59 20 -9 4 -43 16 -76 25 -33 10 -76
23 -95 30 -19 7 -73 23 -120 35 -47 12 -98 26 -115 30 -78 21 -135 32 -195 37
-36 3 -71 10 -78 16 -16 12 -110 25 -287 38 -227 16 -245 19 -245 35 0 12 -40
14 -250 14 -205 0 -250 -2 -250 -14z m2534 -2525 c4 -6 -304 -313 -448 -446
-6 -6 -117 -111 -246 -235 -129 -123 -247 -236 -261 -250 -15 -14 -71 -68
-125 -121 -55 -52 -205 -196 -334 -319 -129 -123 -291 -279 -360 -345 -145
-141 -358 -345 -447 -429 -34 -32 -66 -56 -72 -55 -5 2 -90 81 -188 174 -212
203 -200 191 -349 335 -212 205 -570 549 -600 576 -26 24 -152 145 -599 575
-66 63 -169 163 -230 221 -60 58 -157 150 -214 205 -63 61 -101 104 -97 111 9
14 4562 17 4570 3z m676 -2084 c0 -1381 -3 -1796 -12 -1805 -17 -17 -5839 -17
-5856 0 -9 9 -12 414 -12 1763 0 962 3 1760 6 1773 8 29 16 28 51 -5 15 -16
93 -86 172 -158 80 -71 194 -175 255 -230 61 -55 172 -154 246 -220 74 -66
140 -125 145 -132 6 -6 30 -28 55 -48 25 -20 73 -64 108 -97 34 -33 80 -74
101 -92 22 -17 111 -96 198 -175 87 -79 196 -178 242 -220 47 -42 97 -87 111
-101 15 -14 57 -52 94 -85 38 -33 80 -71 95 -85 15 -14 45 -40 67 -59 21 -18
75 -68 119 -110 45 -42 103 -96 130 -120 70 -62 480 -443 632 -588 31 -30 65
-53 77 -53 11 0 40 17 62 38 23 20 77 68 120 107 44 38 122 110 174 160 52 49
147 135 209 190 63 55 121 107 130 116 9 9 52 47 96 85 44 38 112 99 150 135
39 37 89 82 112 101 23 20 63 56 90 80 44 42 145 134 388 353 48 44 101 91
116 105 15 14 62 57 105 95 43 39 112 102 154 140 42 39 111 102 155 140 43
39 124 111 180 161 55 50 122 111 149 135 109 97 261 234 266 240 3 3 43 39
90 79 47 41 110 98 140 127 30 29 63 53 73 53 16 0 17 -92 17 -1793z"/>
</g>
</svg>
