<?xml version="1.0" standalone="no"?>
<!DOCTYPE svg PUBLIC "-//W3C//DTD SVG 20010904//EN"
 "http://www.w3.org/TR/2001/REC-SVG-20010904/DTD/svg10.dtd">
<svg version="1.0" xmlns="http://www.w3.org/2000/svg"
 width="900.000000pt" height="900.000000pt" viewBox="0 0 900.000000 900.000000"
 preserveAspectRatio="xMidYMid meet">
<metadata>
Created by potrace 1.10, written by Peter Selinger 2001-2011
</metadata>
<g transform="translate(0.000000,900.000000) scale(0.100000,-0.100000)"
fill="#ffffffff" stroke="white">
<path d="M4240 8986 c0 -17 -50 -26 -150 -27 -110 -1 -291 -23 -385 -48 -22
-6 -71 -15 -110 -21 -130 -20 -154 -25 -335 -77 -30 -8 -59 -19 -65 -24 -5 -5
-18 -9 -30 -9 -19 0 -98 -23 -140 -41 -11 -5 -40 -15 -65 -23 -49 -16 -199
-77 -295 -120 -33 -15 -76 -34 -95 -43 -44 -19 -45 -20 -176 -89 -146 -77
-169 -90 -249 -142 -11 -6 -27 -15 -35 -19 -8 -3 -31 -19 -51 -35 -20 -15 -40
-28 -44 -28 -4 0 -17 -8 -30 -17 -12 -10 -33 -25 -45 -33 -24 -16 -233 -173
-300 -225 -169 -132 -515 -478 -630 -630 -26 -34 -204 -272 -218 -290 -27 -36
-142 -215 -142 -220 0 -4 -8 -19 -19 -33 -24 -35 -53 -85 -114 -202 -27 -52
-62 -119 -78 -149 -16 -30 -29 -61 -29 -70 0 -10 -4 -21 -9 -27 -13 -13 -128
-286 -141 -335 -6 -23 -15 -49 -20 -58 -15 -30 -40 -116 -40 -137 0 -11 -4
-24 -10 -30 -13 -13 -59 -178 -80 -284 -5 -25 -13 -65 -19 -90 -6 -25 -10 -61
-11 -81 0 -20 -7 -50 -15 -65 -8 -16 -15 -47 -15 -70 0 -23 -4 -54 -10 -70
-17 -50 -34 -369 -34 -634 0 -235 16 -568 30 -615 3 -11 9 -47 13 -80 5 -33
13 -73 19 -90 6 -16 16 -64 22 -105 15 -108 25 -155 50 -240 12 -41 25 -92 29
-113 5 -21 14 -44 20 -50 6 -6 11 -21 11 -33 0 -11 12 -52 26 -90 14 -38 30
-85 35 -105 10 -43 127 -320 140 -334 5 -5 9 -18 9 -30 0 -12 4 -25 9 -30 4
-6 40 -71 78 -145 39 -74 88 -164 110 -200 21 -36 43 -72 47 -80 12 -25 114
-183 138 -215 7 -9 141 -187 218 -290 102 -136 500 -533 636 -635 18 -14 84
-63 146 -110 114 -87 184 -137 216 -155 10 -5 33 -21 52 -35 37 -27 66 -45 90
-56 8 -4 58 -33 110 -63 148 -87 444 -231 544 -265 26 -9 60 -23 76 -31 40
-21 264 -95 287 -95 10 0 23 -4 28 -9 6 -6 28 -14 50 -20 95 -23 171 -44 190
-52 11 -4 36 -10 55 -13 136 -20 180 -28 215 -37 73 -19 148 -29 290 -40 77
-5 176 -14 220 -20 140 -18 831 5 909 31 16 6 47 10 70 10 23 0 52 6 66 13 15
8 55 16 91 20 59 5 117 16 194 37 17 4 68 17 115 29 47 12 98 29 113 37 16 8
36 14 45 14 18 0 105 27 133 40 9 5 35 14 59 20 49 13 343 137 445 187 116 58
260 136 320 174 22 14 47 29 55 33 24 11 183 114 215 138 6 5 66 50 133 101
185 138 185 137 258 202 83 73 403 393 459 459 51 60 79 96 192 248 51 68 96
128 101 133 24 31 126 189 139 215 4 8 32 58 63 110 81 138 211 404 261 535
11 27 29 69 39 92 11 23 24 59 29 80 5 21 21 69 35 107 14 38 26 79 26 90 0
12 4 26 9 32 5 5 16 34 24 64 53 185 59 213 77 340 6 41 16 89 22 105 20 55
46 277 47 396 1 96 10 139 27 139 12 0 14 45 14 250 0 205 -2 250 -14 250 -17
0 -26 43 -27 139 -1 119 -27 341 -47 396 -6 17 -16 64 -22 105 -18 127 -24
155 -77 340 -8 30 -19 59 -24 64 -5 6 -9 20 -9 32 0 11 -12 52 -26 90 -14 38
-30 86 -35 107 -5 21 -18 57 -29 80 -10 23 -28 65 -39 92 -51 133 -182 401
-261 535 -31 52 -60 102 -64 110 -11 24 -113 182 -138 215 -5 6 -50 65 -101
133 -113 151 -141 187 -192 248 -54 65 -407 418 -474 474 -60 51 -70 58 -243
188 -67 51 -127 96 -133 100 -37 28 -192 127 -215 138 -8 4 -26 15 -40 24
-133 92 -640 332 -780 370 -24 6 -50 15 -59 20 -9 4 -43 16 -76 25 -33 10 -76
23 -95 30 -19 7 -73 23 -120 35 -47 12 -98 26 -115 30 -78 21 -135 32 -195 37
-36 3 -71 10 -78 16 -16 12 -110 25 -287 38 -227 16 -245 19 -245 35 0 12 -40
14 -250 14 -205 0 -250 -2 -250 -14z m3513 -2396 c4 0 6 -987 5 -2192 l-3
-2193 -3230 -3 c-1777 -1 -3240 0 -3253 3 l-22 5 2 2188 3 2187 185 5 c132 4
4449 4 6313 0z"/>
<path d="M2395 6079 c-4 -6 1 -18 11 -28 11 -9 71 -64 134 -121 109 -99 240
-217 395 -360 39 -36 91 -83 115 -105 25 -22 79 -71 120 -110 42 -38 123 -113
180 -165 126 -115 216 -197 251 -230 14 -14 50 -47 80 -74 30 -27 77 -70 104
-96 28 -26 73 -66 100 -90 60 -52 230 -208 335 -306 41 -40 98 -91 125 -114
28 -24 52 -46 55 -49 3 -3 20 -19 37 -35 l32 -29 38 33 c21 18 83 74 138 125
55 50 123 111 150 136 28 24 79 71 114 104 100 94 114 107 167 154 102 91 241
219 324 296 104 98 192 178 296 270 43 39 117 106 164 150 134 125 184 171
355 325 88 79 185 167 215 196 30 28 70 65 89 81 20 17 31 35 27 41 -10 16
-4142 17 -4151 1z"/>
<path d="M7100 5794 c-19 -18 -48 -44 -63 -56 -16 -13 -50 -41 -75 -64 -26
-22 -92 -78 -147 -124 -55 -46 -102 -87 -105 -90 -3 -4 -50 -45 -106 -91 -55
-46 -136 -115 -180 -154 -44 -38 -101 -88 -128 -110 -27 -22 -55 -45 -61 -52
-10 -10 -116 -101 -200 -172 -11 -9 -54 -46 -95 -83 -41 -36 -88 -77 -105 -91
-43 -36 -185 -158 -215 -184 -14 -11 -79 -67 -145 -123 -66 -56 -147 -125
-179 -154 -33 -28 -91 -77 -130 -110 -39 -32 -94 -79 -121 -105 -28 -25 -75
-65 -105 -89 -30 -24 -99 -84 -152 -133 -54 -50 -119 -107 -145 -128 -26 -21
-70 -59 -98 -85 -80 -74 -89 -73 -190 24 -30 28 -74 67 -97 87 -23 19 -83 72
-132 117 -117 107 -250 224 -290 255 -27 21 -83 70 -161 141 -11 9 -58 50
-105 89 -47 40 -98 83 -115 97 -49 43 -299 259 -331 286 -69 61 -474 408 -539
463 -39 33 -98 83 -131 112 -99 86 -224 194 -314 270 -47 39 -94 80 -105 90
-11 10 -51 45 -90 77 -38 32 -78 67 -88 79 -11 13 -21 17 -27 11 -7 -7 -9
-574 -8 -1555 l3 -1544 2665 0 2665 0 3 1568 c2 1250 0 1567 -10 1566 -7 0
-29 -16 -48 -35z"/>
</g>
</svg>
