<?xml version="1.0" standalone="no"?>
<!DOCTYPE svg PUBLIC "-//W3C//DTD SVG 20010904//EN"
 "http://www.w3.org/TR/2001/REC-SVG-20010904/DTD/svg10.dtd">
<svg version="1.0" xmlns="http://www.w3.org/2000/svg"
 width="900.000000pt" height="900.000000pt" viewBox="0 0 900.000000 900.000000"
 preserveAspectRatio="xMidYMid meet">
<metadata>
Created by potrace 1.10, written by Peter Selinger 2001-2011
</metadata>
<g transform="translate(0.000000,900.000000) scale(0.100000,-0.100000)"
fill="#ffffffff" stroke="white">
<path d="M4207 8986 c-4 -10 -35 -15 -114 -20 -109 -6 -209 -17 -318 -35 -33
-6 -87 -15 -120 -20 -33 -6 -78 -15 -100 -21 -22 -6 -60 -15 -85 -19 -43 -9
-171 -42 -235 -61 -16 -5 -57 -16 -90 -25 -33 -9 -64 -21 -70 -26 -5 -5 -17
-9 -27 -9 -10 0 -26 -4 -36 -9 -18 -11 -193 -76 -229 -86 -12 -3 -58 -24 -103
-46 -44 -21 -83 -39 -86 -39 -8 0 -191 -92 -234 -118 -19 -11 -57 -33 -85 -47
-80 -42 -278 -165 -351 -219 -140 -102 -169 -124 -211 -159 -25 -21 -58 -46
-72 -55 -14 -9 -43 -33 -63 -53 -21 -20 -55 -51 -77 -68 -54 -43 -371 -359
-371 -370 0 -5 -27 -36 -60 -69 -33 -33 -60 -64 -60 -69 0 -5 -19 -31 -43 -58
-101 -116 -298 -404 -377 -551 -24 -43 -46 -83 -51 -89 -12 -16 -129 -248
-129 -256 0 -5 -17 -43 -38 -86 -47 -99 -69 -155 -144 -378 -23 -66 -45 -128
-50 -137 -4 -10 -8 -27 -8 -38 0 -11 -4 -28 -10 -38 -8 -15 -25 -83 -50 -197
-5 -22 -14 -60 -20 -85 -6 -25 -13 -65 -16 -90 -3 -25 -9 -54 -14 -65 -5 -11
-12 -45 -15 -75 -3 -30 -10 -89 -15 -130 -39 -309 -39 -843 0 -1160 14 -111
44 -293 60 -360 6 -25 15 -63 20 -85 25 -114 42 -182 50 -197 6 -10 10 -27 10
-38 0 -11 4 -28 9 -38 4 -9 19 -51 32 -92 12 -41 26 -82 30 -90 18 -39 49
-127 49 -137 0 -13 11 -41 77 -182 24 -51 43 -96 43 -100 0 -10 109 -222 147
-286 16 -27 32 -57 36 -65 43 -92 252 -397 369 -538 26 -31 48 -61 48 -65 0
-5 27 -36 60 -69 33 -33 60 -64 60 -69 0 -11 317 -327 371 -370 22 -17 56 -48
77 -68 20 -20 49 -44 63 -53 14 -9 47 -34 72 -55 80 -66 146 -115 286 -208
152 -101 230 -147 410 -242 44 -23 88 -46 98 -52 10 -6 36 -18 58 -27 22 -9
74 -34 116 -54 42 -21 87 -41 100 -45 38 -11 212 -75 231 -86 10 -5 26 -9 36
-9 10 0 22 -4 27 -9 6 -5 37 -17 70 -26 33 -9 74 -20 90 -25 64 -19 192 -52
235 -61 25 -4 63 -13 85 -19 22 -6 67 -15 100 -21 33 -5 87 -14 120 -20 342
-57 932 -65 1295 -19 41 5 100 12 130 15 30 3 64 10 75 15 11 5 40 11 65 14
76 10 114 17 135 26 11 5 34 11 50 13 58 10 170 38 187 47 10 6 27 10 38 10
11 0 28 4 38 9 9 5 51 20 92 32 41 12 82 26 90 30 39 19 124 49 139 49 10 0
26 7 37 15 10 8 26 15 34 15 8 0 57 20 108 45 52 25 97 45 102 45 9 0 240 118
256 131 6 5 42 25 80 45 77 40 359 225 444 291 30 23 79 62 108 85 29 23 60
47 70 52 9 5 34 26 54 46 21 21 55 52 76 68 59 47 354 342 381 382 14 19 44
53 68 75 24 23 43 45 43 50 0 6 22 36 48 67 93 113 316 432 343 493 5 11 17
34 27 50 10 17 38 66 62 110 24 44 51 94 61 112 10 18 31 63 47 100 17 37 46
102 66 144 20 42 36 82 36 88 0 5 6 25 14 43 8 18 24 60 36 93 13 33 26 68 31
77 5 10 9 27 9 37 0 11 4 22 9 25 4 3 14 27 21 53 17 68 31 115 41 138 7 19
29 107 49 200 5 22 14 60 20 85 10 42 16 77 41 225 18 112 29 210 35 323 5 86
9 112 20 112 12 0 14 47 14 280 0 233 -2 280 -14 280 -11 0 -15 26 -20 113 -6
112 -17 210 -35 322 -25 148 -31 183 -41 225 -6 25 -15 63 -20 85 -25 114 -42
182 -50 197 -6 10 -10 27 -10 38 0 11 -4 28 -9 38 -4 9 -19 51 -32 92 -12 41
-26 82 -30 90 -4 8 -16 42 -29 75 -12 33 -28 75 -36 93 -8 18 -14 38 -14 43 0
6 -16 46 -36 88 -20 42 -49 106 -65 144 -17 37 -40 87 -53 110 -60 111 -112
204 -123 222 -7 11 -16 29 -21 40 -13 26 -204 313 -261 390 -25 33 -64 82 -88
110 -24 27 -43 54 -43 59 0 6 -19 28 -43 51 -24 22 -54 56 -67 75 -38 55 -408
416 -495 483 -5 4 -30 23 -55 42 -227 176 -434 318 -585 400 -38 21 -74 41
-80 46 -16 12 -247 129 -256 129 -4 0 -49 20 -101 45 -51 25 -100 45 -108 45
-8 0 -24 7 -34 15 -11 8 -27 15 -37 15 -14 0 -77 22 -144 51 -48 20 -206 69
-224 69 -11 0 -22 4 -25 8 -3 5 -37 15 -76 22 -39 7 -73 17 -76 22 -3 4 -23 8
-44 8 -21 0 -41 4 -44 9 -5 8 -47 16 -141 27 -22 3 -49 9 -60 14 -11 5 -45 12
-75 15 -30 3 -89 10 -130 15 -41 6 -124 13 -183 16 -79 5 -110 10 -114 20 -4
11 -55 14 -283 14 -228 0 -279 -3 -283 -14z m-1363 -1995 c17 -5 49 -15 71
-21 145 -44 297 -176 320 -279 3 -17 11 -33 16 -36 5 -4 9 -23 9 -44 0 -20 5
-42 11 -48 12 -12 7 -140 -8 -213 -27 -131 -132 -263 -259 -324 -41 -20 -95
-42 -122 -48 -60 -15 -273 -15 -333 0 -180 43 -317 175 -377 363 -15 44 -16
265 -2 274 6 3 10 14 10 24 0 23 49 117 84 164 29 38 106 99 161 128 29 15 95
38 165 57 46 13 215 15 254 3z m3061 -1389 c28 -5 64 -14 80 -20 17 -5 50 -16
75 -23 257 -74 482 -270 607 -529 59 -122 66 -141 104 -295 41 -161 42 -196
46 -1202 l3 -983 -22 -5 c-13 -3 -237 -4 -498 -3 l-475 3 -6 900 c-4 598 -9
915 -17 945 -21 88 -29 115 -39 135 -5 11 -21 43 -34 70 -23 50 -129 165 -151
165 -6 0 -19 6 -27 13 -15 13 -36 20 -137 46 -57 15 -138 13 -209 -5 -33 -9
-71 -18 -85 -21 -14 -3 -32 -11 -40 -17 -8 -7 -28 -18 -44 -26 -89 -44 -226
-230 -250 -340 -5 -26 -12 -419 -15 -955 l-6 -910 -495 0 -495 0 0 1500 0
1500 489 3 c385 2 491 0 498 -10 4 -7 8 -95 8 -195 l0 -183 25 12 c14 6 25 15
25 19 0 17 117 144 188 205 94 80 124 97 287 163 55 22 123 41 150 41 17 0 37
5 45 10 18 13 343 6 415 -8z m-2696 -66 c8 -10 10 -410 9 -1502 l-3 -1489
-489 -3 c-350 -1 -493 1 -502 9 -11 9 -14 259 -14 1486 0 979 4 1481 11 1494
9 18 29 19 493 19 395 0 486 -2 495 -14z"/>
</g>
</svg>
