<?xml version="1.0" standalone="no"?>
<!DOCTYPE svg PUBLIC "-//W3C//DTD SVG 20010904//EN"
 "http://www.w3.org/TR/2001/REC-SVG-20010904/DTD/svg10.dtd">
<svg version="1.0" xmlns="http://www.w3.org/2000/svg"
 width="900.000000pt" height="564.000000pt" viewBox="0 0 900.000000 564.000000"
 preserveAspectRatio="xMidYMid meet">
<metadata>
Created by potrace 1.10, written by Peter Selinger 2001-2011
</metadata>
<g transform="translate(0.000000,564.000000) scale(0.100000,-0.100000)"
fill="#ffffffff" stroke="white"
stroke-width="15">
<path d="M1250 5101 c-7 -13 -10 -570 -10 -1729 0 -1518 2 -1714 15 -1747 13
-30 16 -80 14 -277 -1 -192 2 -242 13 -249 7 -5 588 -9 1290 -9 791 0 1286 -4
1302 -10 14 -5 38 -29 53 -52 15 -24 33 -47 40 -51 7 -4 13 -16 13 -26 0 -9
13 -30 30 -46 17 -16 30 -32 30 -36 0 -5 13 -28 30 -52 16 -25 30 -50 30 -55
0 -6 6 -15 13 -19 20 -13 49 -73 43 -88 -5 -13 -146 -15 -1018 -17 l-1013 -3
0 -220 c0 -170 3 -220 13 -219 6 1 1018 2 2247 2 l2235 2 -2 212 -3 213 -1075
5 c-988 5 -1075 6 -1078 21 -2 10 34 72 80 138 46 67 107 156 135 198 29 42
60 84 68 92 14 14 167 17 1423 21 l1407 5 3 261 2 261 25 11 25 12 0 1719 c0
1550 -2 1721 -16 1735 -14 15 -317 16 -3184 16 -3123 0 -3169 0 -3180 -19z
m6320 -67 c14 -35 14 -3273 0 -3308 l-10 -26 -3119 0 c-3075 0 -3120 0 -3131
19 -7 13 -10 549 -10 1661 0 1112 3 1648 10 1661 11 19 56 19 3131 19 l3119 0
10 -26z m-60 -3414 c5 -8 10 -113 10 -232 0 -205 -1 -218 -19 -228 -14 -7
-989 -10 -3080 -10 -2768 0 -3061 1 -3075 16 -14 13 -16 48 -16 227 0 117 4
217 8 223 4 6 14 14 22 17 8 3 1393 5 3078 4 2710 -2 3064 -4 3072 -17z
m-2843 -536 c3 -10 -20 -53 -63 -115 -38 -55 -102 -148 -143 -207 -76 -112
-97 -131 -144 -132 -56 0 -83 27 -187 194 -8 13 -45 69 -82 123 -63 91 -79
129 -61 146 3 4 156 7 340 7 294 0 334 -2 340 -16z m1893 -523 c5 -11 10 -78
10 -150 0 -104 -3 -133 -16 -145 -14 -14 -225 -16 -2175 -16 -1470 0 -2166 3
-2180 10 -17 10 -19 23 -19 153 0 98 4 147 12 155 9 9 508 12 2185 12 2137 0
2172 0 2183 -19z"/>
<path d="M4562 4188 c-5 -7 -12 -26 -15 -43 -3 -16 -12 -57 -21 -90 -30 -121
-35 -142 -52 -225 -9 -47 -22 -107 -29 -135 -7 -27 -20 -86 -30 -130 -9 -44
-22 -96 -28 -115 -6 -19 -14 -53 -18 -75 -4 -22 -15 -67 -24 -100 -9 -33 -21
-82 -26 -110 -5 -27 -16 -77 -23 -110 -8 -33 -21 -96 -31 -140 -9 -44 -23
-102 -31 -129 -8 -26 -14 -55 -14 -64 0 -8 -7 -40 -16 -71 -51 -178 -52 -171
17 -171 45 0 49 2 54 28 4 15 10 35 16 44 5 10 9 27 9 39 0 20 18 108 56 266
8 35 21 91 29 125 8 35 35 146 59 248 24 102 51 221 61 265 32 155 47 220 61
269 8 26 14 57 14 67 0 10 4 28 9 41 5 13 19 68 31 123 12 55 25 108 31 117 5
10 9 34 9 53 0 35 0 35 -44 35 -24 0 -48 -6 -54 -12z"/>
<path d="M3878 3806 c-53 -28 -118 -63 -145 -77 -26 -14 -100 -53 -163 -86
-63 -33 -140 -74 -170 -90 -30 -17 -98 -52 -150 -78 -133 -67 -130 -64 -130
-155 0 -46 5 -83 13 -92 13 -17 194 -117 262 -145 22 -9 101 -48 175 -87 74
-38 160 -81 190 -95 30 -14 97 -47 148 -73 86 -44 93 -45 102 -28 13 24 13
106 0 130 -8 16 -131 80 -440 229 -52 25 -111 55 -130 67 -19 12 -46 25 -60
29 -14 4 -37 16 -52 26 -51 37 -23 63 162 149 30 14 100 50 155 81 122 69 185
101 249 129 50 22 61 29 102 67 19 18 24 32 24 72 0 61 -7 81 -29 80 -9 -1
-60 -25 -113 -53z"/>
<path d="M4819 3850 c0 -5 0 -35 0 -65 0 -30 0 -62 0 -69 1 -8 22 -26 49 -39
26 -14 103 -53 172 -88 69 -34 139 -72 155 -84 17 -11 94 -52 172 -90 112 -55
144 -75 149 -94 5 -18 1 -28 -17 -42 -13 -10 -31 -19 -39 -19 -9 0 -26 -7 -39
-16 -27 -20 -307 -158 -338 -168 -12 -4 -53 -24 -90 -44 -37 -21 -92 -48 -120
-62 -37 -17 -53 -31 -54 -45 -1 -40 3 -140 6 -144 4 -4 866 426 878 438 9 9
13 178 5 186 -3 3 -72 40 -154 81 -82 42 -154 80 -161 86 -6 5 -82 45 -168 89
-86 44 -173 90 -193 103 -44 26 -190 96 -203 96 -5 0 -9 -4 -10 -10z"/>
</g>
</svg>
