<?xml version="1.0" standalone="no"?>
<!DOCTYPE svg PUBLIC "-//W3C//DTD SVG 20010904//EN"
 "http://www.w3.org/TR/2001/REC-SVG-20010904/DTD/svg10.dtd">
<svg version="1.0" xmlns="http://www.w3.org/2000/svg"
 width="900.000000pt" height="564.000000pt" viewBox="0 0 900.000000 564.000000"
 preserveAspectRatio="xMidYMid meet">
<metadata>
Created by potrace 1.10, written by Peter Selinger 2001-2011
</metadata>
<g transform="translate(0.000000,564.000000) scale(0.100000,-0.100000)"
fill="#ffffffff" stroke="white">
<path d="M3287 5620 c-4 -17 -14 -20 -61 -20 -68 0 -118 -23 -241 -111 -73
-51 -85 -64 -85 -89 0 -16 -11 -42 -25 -58 l-25 -30 0 -2502 0 -2502 25 -30
c14 -16 25 -42 25 -58 0 -25 12 -38 85 -89 122 -87 174 -111 239 -111 30 0 58
-5 61 -10 9 -14 2251 -14 2260 0 3 6 30 10 58 10 61 0 110 22 229 106 95 66
98 69 98 108 0 17 10 40 23 54 l22 24 0 2498 0 2498 -22 24 c-14 15 -23 37
-23 56 0 17 -6 36 -12 41 -74 60 -178 130 -230 154 -20 9 -59 17 -88 17 -43 0
-53 3 -57 20 -5 20 -14 20 -1128 20 -1114 0 -1123 0 -1128 -20z m2190 -85 c19
-8 53 -15 74 -15 55 0 117 -27 164 -70 22 -21 59 -48 82 -60 24 -13 46 -34 51
-49 26 -72 33 -112 30 -181 l-3 -75 -1469 -3 c-1169 -2 -1471 0 -1478 10 -14
23 -8 152 11 208 15 46 25 60 66 87 26 17 64 47 84 66 43 40 106 67 160 67 21
0 54 7 72 15 52 22 2102 22 2156 0z m397 -531 c3 -9 6 -955 6 -2103 0 -1610
-3 -2090 -12 -2099 -17 -17 -2919 -17 -2936 0 -17 17 -17 4189 0 4206 9 9 350
12 1474 12 1324 0 1462 -1 1468 -16z m1 -4297 c11 -43 -1 -321 -16 -371 -12
-45 -20 -53 -71 -83 -32 -19 -62 -43 -68 -54 -15 -27 -113 -69 -164 -69 -22
-1 -52 -7 -66 -15 -38 -21 -2142 -21 -2180 0 -14 8 -44 14 -66 15 -51 0 -149
42 -164 70 -6 11 -35 34 -65 51 -50 28 -55 34 -74 94 -17 53 -21 90 -21 209 0
79 3 151 6 160 6 15 145 16 1475 16 l1469 0 5 -23z"/>
<path d="M3907 5313 c-13 -12 -7 -43 8 -43 8 0 238 0 510 0 272 0 502 0 511 0
10 0 14 7 12 23 l-3 22 -516 3 c-283 1 -519 -1 -522 -5z"/>
<path d="M4347 3284 c-4 -4 -7 -177 -7 -385 0 -232 -4 -380 -10 -384 -5 -3
-97 37 -203 90 -107 52 -202 95 -211 95 -12 0 -16 -10 -16 -48 0 -57 -18 -45
257 -187 117 -60 213 -114 213 -120 0 -6 -103 -11 -285 -13 l-285 -2 0 -30 c0
-16 4 -31 10 -35 5 -3 260 -6 566 -5 589 0 577 -1 572 45 -3 19 -12 20 -246
25 -150 3 -242 9 -243 15 0 9 66 46 326 178 128 65 145 80 145 129 0 26 -5 41
-16 45 -10 4 -93 -32 -212 -91 -107 -53 -199 -93 -203 -89 -5 5 -10 180 -11
388 l-3 380 -65 3 c-36 2 -69 0 -73 -4z"/>
<path d="M4294 651 c-79 -46 -134 -138 -134 -224 0 -51 40 -136 84 -179 43
-42 144 -82 190 -75 89 14 162 64 206 140 56 97 35 222 -52 304 -47 44 -99 63
-177 63 -54 0 -75 -5 -117 -29z m235 -54 c107 -71 117 -240 18 -317 -107 -85
-247 -57 -308 62 -20 40 -25 120 -10 161 14 37 71 98 106 114 49 22 145 12
194 -20z"/>
</g>
</svg>
